# xmcd
#
# Track frame offsets: 
#        150
#        19064
#        32182
#        65558
#        90746
#        107093
#        130394
#        146688
#        161093
#        185138
#        205511
#        226534
#        239300
#        257613
#        271674
#
# Disc length: 4082 seconds
#
# Revision: 1
# Processed by: cddbd v1.5.2PL0 Copyright (c) Steve Scherf et al.
# Submitted via: ExactAudioCopy v1.1
#
DISCID=cc0ff00f
DTITLE=Various Artist - Ultimate Smooth Jazz
DYEAR=2009
DGENRE=Jazz
TTITLE0=The Brecon Brothers - Take Five
TTITLE1=Jazz Urbaine - Do You Know the Way to San Jose?
TTITLE2=Bob James - Westchester Lady
TTITLE3=Exotique - Baker Street
TTITLE4=Kymaera - Chuck E's in Love
TTITLE5=Marc Colby - Skat Talk
TTITLE6=Grupo Cabana - Favela
TTITLE7=Lena Horne and Gábor Szabó - Something
TTITLE8=Wilbert Longmine - Hawkeye
TTITLE9=Kymaera - Lowdown
TTITLE10=The Brecon Brothers - Grazin' in the Grass
TTITLE11=Cal Tjader - Mambo Sangria
TTITLE12=Kymaera - It's Too Late
TTITLE13=George Shearing - Sophisticated Lady
TTITLE14=Donald Byrd - Someone to Watch Over Me
EXTD=YEAR: 2009
EXTT0=
EXTT1=
EXTT2=
EXTT3=
EXTT4=
EXTT5=
EXTT6=
EXTT7=
EXTT8=
EXTT9=
EXTT10=
EXTT11=
EXTT12=
EXTT13=
EXTT14=
PLAYORDER=
